<svg xmlns="http://www.w3.org/2000/svg" viewBox="0 0 150 163" overflow="hidden"><path d="M67.5,0 C70.5,10.015361 71.5,23.0353303 70.5,39.0599078 C87.5,23.5360983 102.5,15.7741935 115.5,15.7741935 C108,23.2857143 108.272452,33.9711351 112.5,33.0506912 C124,30.546851 136.5,32.5499232 150,39.0599078 L150,153.269585 C150,165.695992 139.926407,175.769585 127.5,175.769585 L61.1792721,175.769585 C54.9660687,175.769585 49.9292721,170.732789 49.9292721,164.519585 C49.9292721,162.825588 50.3118282,161.153461 51.0483941,159.627979 C55.1904226,151.049532 63.9242912,142.158178 77.25,132.953917 C99,117.930876 107.25,107.414747 107.25,87.8847926 C107.25,76.6175115 101.235622,69.7933468 93,69.1059908 C84,68.3548387 77.25,72.8617512 77.25,79.6221198 C77.25,83.1274962 78.25,86.1321045 80.25,88.6359447 L45,114.175115 C42.5,117.680492 41.25,121.686636 41.25,126.193548 C31.75,126.193548 26.5,120.935484 25.5,110.419355 L30.5,74.1136713 C24.1666667,69.2729135 19.25,63.5140809 15.75,56.8371736 C21.5833333,59.8417819 27.3527952,61.6613272 33.0583855,62.2958096 L36,43.5668203 C38.5,30.546851 41.75,22.0337942 45.75,18.0276498 C45.25,27.0414747 46.25,38.0583717 48.75,51.078341 C59.25,35.5545315 65.5,18.5284178 67.5,0 Z M55.5,59.3410138 C54.8493151,62.5994361 52.5050666,67.1299821 48.4672671,72.9331549 C49.3254255,73.6214254 49.875,74.6796138 49.875,75.8663594 C49.875,77.9406086 48.1960678,79.6221198 46.125,79.6221198 C45.3413993,79.6221198 44.6139341,79.3814062 44.0134198,78.9679649 C42.9192012,80.380157 41.7480613,81.8501288 40.5,83.3778802 C48.0409322,84.7516633 53.0409322,83.2493592 55.5,78.8709677 C58.5613983,73.4201217 58.5,65.3502304 55.5,59.3410138 Z"/></svg>
